<?xml version="1.0" encoding="UTF-8"?>
<svg version="1.1" xmlns="http://www.w3.org/2000/svg" xmlns:xlink="http://www.w3.org/1999/xlink" x="0px" y="0px"
	 viewBox="0 0 200 200" style="enable-background:new 0 0 200 200;" xml:space="preserve">
<path d="M68.5,156.7c0,0.8-0.9,1.4-2,1.4c-1.3,0.1-2.2-0.5-2.2-1.4c0-0.8,0.9-1.4,2-1.4C67.5,155.2,68.5,155.8,68.5,156.7z
	 M56.5,155c-0.3,0.8,0.5,1.7,1.7,1.9c1,0.4,2.2,0,2.4-0.8c0.2-0.8-0.5-1.7-1.7-2C57.8,153.8,56.7,154.2,56.5,155L56.5,155z
	 M73.6,154.3c-1.1,0.3-1.9,1-1.8,1.9c0.1,0.8,1.1,1.3,2.3,1c1.1-0.3,1.9-1,1.8-1.8C75.7,154.7,74.7,154.2,73.6,154.3z M99,6.1
	c-53.7,0-94.7,40.7-94.7,94.4c0,42.9,27,79.6,65.6,92.5c5,0.9,6.7-2.2,6.7-4.7c0-2.4-0.1-15.6-0.1-23.8c0,0-27.1,5.8-32.8-11.5
	c0,0-4.4-11.3-10.8-14.2c0,0-8.9-6.1,0.6-6c0,0,9.6,0.8,14.9,10c8.5,14.9,22.7,10.6,28.2,8.1c0.9-6.2,3.4-10.5,6.2-13
	c-21.6-2.4-43.4-5.5-43.4-42.8c0-10.6,2.9-16,9.1-22.8c-1-2.5-4.3-12.9,1-26.3c8.1-2.5,26.7,10.4,26.7,10.4
	c7.7-2.2,16.1-3.3,24.3-3.3s16.6,1.1,24.3,3.3c0,0,18.6-13,26.7-10.4c5.3,13.4,2,23.8,1,26.3c6.2,6.8,10,12.2,10,22.8
	c0,37.3-22.8,40.3-44.4,42.8c3.6,3.1,6.6,8.9,6.6,18c0,13-0.1,29.2-0.1,32.3c0,2.5,1.8,5.6,6.7,4.7c38.7-12.8,64.9-49.6,64.9-92.5
	C196.2,46.8,152.7,6.1,99,6.1z M41.9,139.5c-0.5,0.4-0.4,1.3,0.3,2c0.6,0.6,1.5,0.9,2,0.4c0.5-0.4,0.4-1.3-0.3-2
	C43.3,139.3,42.4,139,41.9,139.5z M37.7,136.4c-0.3,0.5,0.1,1.1,0.9,1.5c0.6,0.4,1.4,0.3,1.7-0.3c0.3-0.5-0.1-1.1-0.9-1.5
	C38.6,135.9,38,136,37.7,136.4z M50.3,150.1c-0.6,0.5-0.4,1.7,0.5,2.4c0.9,0.9,2,1,2.5,0.4c0.5-0.5,0.3-1.7-0.5-2.4
	C51.9,149.6,50.8,149.5,50.3,150.1z M45.9,144.5c-0.6,0.4-0.6,1.4,0,2.3c0.6,0.9,1.7,1.3,2.2,0.9c0.6-0.5,0.6-1.5,0-2.4
	C47.5,144.3,46.5,144,45.9,144.5L45.9,144.5z"/>
</svg>