<?xml version="1.0" encoding="UTF-8"?>
<svg viewBox="0 0 924 283.5" version="1.1" style="enable-background:new 0 0 924 283.5;"
  xmlns="http://www.w3.org/2000/svg" xmlns:xlink="http://www.w3.org/1999/xlink"
  xml:space="preserve"><g><path d="M191.1,75.7c1.9,1.3,3.7,2.5,5.6,3.8c13.3,8.9,25.3,19.1,33.6,33c4.8,8,7.7,16.6,7.8,25.9c0,1.8-0.7,4.5-1.8,5.1
		c-1.4,0.7-3.8-0.3-5.7-0.7c-0.8-0.2-1.6-0.7-2.6-1.1c-0.2,0.7-0.5,1.1-0.4,1.5c1.6,27.4-9,49.6-28.6,68
		c-12.9,12-28.2,20.2-44.5,26.8c-13.5,5.4-27.4,9.3-41.6,12.3c-8.3,1.7-16.8,2.6-25.2,3.8c-3.1,0.5-6.2,1.5-9.3,1.5
		c-23-0.3-43.1-12.8-48.9-37.7c-1.6-6.9-1.3-14,0.3-20.9c3-13.2,6.1-26.4,9.2-39.5c3.5-14.9,7-29.8,10.9-44.6
		c2.5-9.6,5.1-19.3,8.5-28.6c8-22.2,24.3-35.1,47.1-40.1c3.8-0.8,7.9-0.6,11.9-0.7c4.4-0.1,4.4,0,2.6-3.8c-0.7-1.6-1.5-3.3-2-4.9
		c-1.4-4,0.6-6.5,5-6.2c8.1,0.5,15.7,2.7,22.9,6.2c15,7.3,27.2,18.1,37.7,30.9c2.1,2.6,2.9,2.5,4.3-0.5
		c8.8-18.1,22.9-29.3,42.7-33.1c1.1-0.2,2.3-0.5,3.4-0.7c2.7-0.4,4.9,0.9,5.4,3.1c0.5,2.4-1,4.4-3.9,5.1c-4.7,1.2-9.5,1.9-13.9,3.7
		c-13.3,5.4-22.3,15.2-27.6,28.6C193.3,73.1,192.3,74.1,191.1,75.7z M133.7,62.7c-0.1-0.3-0.1-0.7-0.2-1c-1.4-0.6-2.8-1.3-4.2-1.7
		c-20.4-5.2-44.2,4.4-55.3,22.3c-7.8,12.5-10.9,26.7-14.2,40.8c-3,12.9-5.7,25.8-8.6,38.7c-2.9,13-6.1,25.9-8.9,38.9
		c-1.8,8.3-0.8,16.5,3.6,24.1c6.6,11.4,17.2,16.7,29.8,17.9c14.4,1.4,28.4-2,42.3-5.2c18.9-4.3,37-10.7,53.7-20.7
		c16.5-9.9,30.3-22.5,38-40.7c6.4-15,8.4-30.1-1-44.8c-1.1-1.7-2.7-3.1-4.1-4.7c-0.8,2-2,4-2.4,6.1c-1.6,9-4.8,17.4-8.8,25.5
		c-0.6,1.3-2.6,2.7-3.9,2.6c-1.4-0.1-3.2-1.6-3.9-2.9c-1.3-2.4-2.2-5-2.7-7.7c-1.9-10.2-3.6-20.4-5.3-30.7c-0.4-2.5-1-5.3-3.7-5.6
		c-1.8-0.2-4.1,1-5.7,2.1c-4.8,3.4-9,7.5-14,10.6c-6.1,3.8-12.6,7.1-19.1,10.2c-1.6,0.8-4.5,0.8-5.7-0.2c-1.2-1-1.4-3.7-1.2-5.6
		c0.2-2,1-4.1,2.2-5.8c5.8-8.7,11.7-17.4,17.6-26c1.2-1.8,2.7-3.8,1.1-5.7c-1.2-1.4-3.3-2.8-5.1-2.9c-8.3-0.2-16.6-1.1-24.5-3.6
		c-5.8-1.8-11.4-4.2-16.9-6.7c-3.3-1.5-3-5.6,0.3-7.2c1.5-0.7,3.1-1.4,4.7-1.9c7.4-2.1,14.9-4.2,22.4-6.4
		C131.3,64.5,132.5,63.5,133.7,62.7z"/><path d="M145.7,183.4c0.1-3,5.2-9.4,8.1-10.2c2.1-0.6,3.3,0.4,2.6,2.3c-1.4,4.2-3.9,7.6-7.8,9.8
		C146.6,186.4,145.6,185.6,145.7,183.4z"/><path d="M82.5,132.9c1.2-3.9,3.8-7.4,7.8-9.6c0.6-0.3,1.8-0.3,2.3,0.2c0.5,0.4,0.7,1.6,0.5,2.2c-1.3,4.1-3.8,7.5-7.6,9.6
		C83.6,136.3,82.4,135.4,82.5,132.9z"/><path
  d="M92.4,155.1c0.2,0.7,0.9,1.8,0.6,2.6c-1.4,4.1-3.8,7.4-7.7,9.5c-1.3,0.7-2.4,0.9-2.9-0.9C81.7,163,88.3,154.9,92.4,155.1z"
/><path d="M122.9,173.2c0-3.8,5.4-10.6,8.3-11.2c1.9-0.4,3,0.5,2.4,2.4c-1.3,4.1-3.8,7.5-7.5,9.7C124.4,175.1,123,174.8,122.9,173.2z
		"/><path
  d="M64.3,204.8c1.2-4.4,4-7.7,8-9.9c1.4-0.8,2.4,0,2.5,1.6c0.2,3.1-4.8,9.7-8,10.6C64.8,207.7,64.1,206.8,64.3,204.8z"/><path
  d="M104.7,221.5c0.3-3.9,4.9-9.9,7.8-10.9c2-0.6,3.2,0.3,2.7,2.3c-1.1,4.4-4,7.6-7.8,9.8C105.5,223.7,104.6,222.7,104.7,221.5
		z"/><path
  d="M105.5,182.6c-0.2,4.2-5,10.5-8,11.3c-1.9,0.5-3-0.2-2.5-2.3c1-4.5,3.9-7.6,7.7-9.9C104.2,180.7,105.4,181.5,105.5,182.6z"
/></g>
  <g><path d="M294,188c0.9-3.8,2.3-8,3.9-12.6c1.7-4.6,3.6-9.4,5.8-14.4c2.2-5,4.6-10.1,7.3-15.3c2.7-5.2,5.4-10.2,8.3-15.1
		c2.9-4.9,5.8-9.5,8.8-13.8c3-4.3,6-8.2,8.9-11.7c0.8-0.9,1.9-2.1,3.2-3.5c1.3-1.4,2.7-2.8,4.2-4.3c1.6-1.5,3.2-3,4.9-4.4
		c1.7-1.5,3.4-2.8,5.2-3.9c1.7-1.2,3.4-2.1,5.1-2.8c1.6-0.7,3.2-1.1,4.5-1.1c1.9,0,3.6,0.3,5.2,1c1.6,0.6,2.9,1.6,4,2.8
		s2,2.6,2.6,4.3c0.6,1.7,0.9,3.5,0.9,5.5c0,0.8-0.1,1.7-0.2,2.5c-0.1,0.8-0.3,1.7-0.5,2.6l-8.3,41.6c0.7-1.1,1.8-2.7,3.1-4.7
		c1.3-2,2.9-4.1,4.5-6.6c1.7-2.4,3.4-4.9,5.3-7.5c1.8-2.6,3.6-5.1,5.4-7.6c1.8-2.4,3.4-4.7,4.9-6.7s2.7-3.6,3.6-4.9l1.3-1.7
		c0.9-1.1,2-2.5,3.3-4c1.3-1.5,2.7-3.2,4.3-4.8c1.6-1.7,3.2-3.4,5-5c1.7-1.6,3.5-3.1,5.3-4.4c1.8-1.3,3.5-2.3,5.3-3.2
		c1.7-0.8,3.4-1.2,5-1.2c1.2,0,2.2,0.3,3,0.8c0.8,0.5,1.4,1.3,1.9,2.2c0.5,0.9,0.8,2,1,3.2c0.2,1.2,0.3,2.5,0.3,3.9
		c0,2.1-0.2,4.2-0.5,6.3c-0.3,2.1-0.7,4.1-1.2,5.8c-0.2,1.4-0.6,3.4-1,6c-0.4,2.6-0.9,5.5-1.5,8.9c-0.6,3.4-1.2,7-1.8,10.9
		c-0.6,3.9-1.3,7.9-2,11.9c-0.7,4-1.3,8-2,11.9c-0.7,3.9-1.3,7.6-1.9,11c-0.6,3.4-1.1,6.4-1.6,9.1s-0.9,4.8-1.2,6.3
		c-0.1,0.7-0.4,1.6-0.7,2.8c-0.3,1.2-0.8,2.4-1.4,3.5c-0.6,1.1-1.4,2.1-2.5,3c-1,0.8-2.3,1.3-3.8,1.3c-0.8,0-1.6-0.3-2.3-0.8
		c-0.7-0.5-1.4-1.2-1.9-2c-0.6-0.8-1-1.6-1.3-2.6c-0.3-0.9-0.5-1.7-0.6-2.5l15.5-73.6c0.1-0.7,0.3-1.3,0.4-1.9
		c0.1-0.5,0.1-1.1,0.1-1.6c0-0.5-0.1-1-0.2-1.5c-0.1-0.4-0.2-0.9-0.3-1.3c-0.1-0.4-0.3-0.8-0.4-1.2c-2.2,1.7-4.6,3.8-7.2,6.4
		c-2.6,2.6-5.1,5.5-7.7,8.7s-5.2,6.6-7.8,10.2c-2.6,3.6-5.1,7.2-7.4,10.8c-1.8,2.8-3.8,5.8-5.9,8.9c-2.1,3.1-4.2,6.3-6.4,9.4
		c-2.1,3.2-4.2,6.3-6.2,9.5c-2,3.2-3.8,6.2-5.5,9c-0.8,1.4-1.6,3.2-2.5,5.4c-0.8,2.2-1.8,4.3-2.8,6.4c-1,2.1-2.1,3.9-3.3,5.4
		c-1.2,1.5-2.5,2.2-4,2.2c-1.1,0-2.1-0.2-2.9-0.5c-0.8-0.3-1.4-0.8-1.8-1.4c-0.4-0.6-0.8-1.2-1-2c-0.2-0.8-0.3-1.6-0.3-2.5
		c0-1.1,0.1-2.3,0.3-3.4c0.2-1.1,0.5-2.2,0.7-3.3c1-4.4,2.1-8.7,3.3-13c1.1-4.3,2.3-8.7,3.5-13.3c1.2-4.5,2.5-9.2,3.8-14
		c1.3-4.8,2.6-10,3.9-15.5c0.3-1.5,0.7-3.3,1.2-5.2c0.4-1.9,0.9-3.8,1.3-5.8c0.4-2,0.7-3.9,1-5.7c0.2-1.8,0.4-3.5,0.4-4.9
		c0-1.3-0.1-2.3-0.3-3.1c-0.2-0.8-0.6-1.2-1.1-1.2c-1.8,0-3.8,0.7-5.8,2c-2,1.4-4.1,3.2-6.2,5.4c-2.1,2.2-4.1,4.8-6.2,7.7
		c-2,2.9-4,5.8-5.8,8.9c-1.8,3.1-3.5,6.1-5.1,9c-1.6,3-3,5.7-4.1,8c-0.2,0.5-0.6,1.2-1.1,2c-0.5,0.9-1.1,2.1-1.9,3.6
		c-0.8,1.6-1.7,3.6-2.8,6c-1.1,2.4-2.4,5.5-3.9,9.2c-1.5,3.7-3.3,8.2-5.2,13.3c-2,5.2-4.2,11.2-6.7,18.2c-0.4,1.2-1.2,2.2-2.3,2.9
		c-1.1,0.7-2.3,1.1-3.5,1.1c-2.6,0-4.5-0.7-5.7-2.1c-1.2-1.4-1.8-3.1-1.8-5.1C293.6,190.1,293.7,189.1,294,188z"/>
    <path d="M438.3,229c-0.7,0-1.4-0.2-2-0.6c-0.6-0.4-1.1-0.9-1.5-1.6c-0.4-0.6-0.8-1.4-1-2.1c-0.2-0.8-0.4-1.5-0.4-2.3
		c0-0.9,0.1-1.8,0.4-2.5c0.2-0.7,0.6-1.3,0.9-1.8c0.4-0.5,0.8-0.9,1.2-1.2c0.4-0.3,0.8-0.5,1.2-0.7c1.2-0.3,2.6-0.6,4.2-1
		c1.6-0.3,3.3-0.9,5.2-1.5c1.9-0.7,3.8-1.5,6-2.6c2.1-1.1,4.3-2.5,6.5-4.2c2.2-1.7,4.6-3.8,7-6.1s4.8-5,7.1-8.1
		c2.3-3.1,4.4-6.7,6.4-10.6c2-4,3.6-8.6,4.9-13.7c-0.9,1-2,2.2-3.2,3.5c-1.2,1.3-2.5,2.7-3.9,4c-1.4,1.4-2.8,2.7-4.3,3.9
		c-1.5,1.3-3,2.4-4.5,3.4c-1.5,1-2.9,1.8-4.4,2.4c-1.4,0.6-2.7,0.9-4,0.9c-3.3,0-6.2-0.8-8.5-2.3c-2.3-1.5-4.5-4-6.5-7.5
		c-0.5-1-1-2.3-1.3-3.9c-0.3-1.6-0.4-3.2-0.4-4.8c0-2.7,0.1-5.3,0.4-7.8c0.2-2.5,0.6-5.2,1.1-7.9c0.5-2.7,1.1-5.6,1.8-8.6
		c0.7-3,1.4-6.3,2.3-9.9c0-0.9,0.1-1.8,0.2-2.7c0.1-0.7,0.2-1.4,0.2-2c0-0.6,0.1-1,0.1-1.2c0.1-0.8,0.4-1.6,0.9-2.4
		c0.5-0.7,1-1.4,1.7-1.9c0.7-0.5,1.4-1,2.2-1.3c0.8-0.3,1.5-0.4,2.3-0.4c1,0,2.1,0.1,3.1,0.3c1,0.2,1.9,0.6,2.5,1.2
		c0.8,0.9,1.5,2.1,1.9,3.5c0.4,1.4,0.6,2.7,0.6,3.9c0,0.4-0.2,1.3-0.6,2.7c-0.4,1.3-1,2.7-1.8,4.2c-1.2,4.5-2.2,8.3-2.9,11.4
		c-0.7,3.1-1.3,5.7-1.8,7.7c-0.4,2.1-0.7,3.7-0.9,4.9c-0.2,1.2-0.3,2.1-0.3,2.8c0,2.7,0.4,4.8,1.3,6.4c0.9,1.6,2,2.4,3.3,2.4
		c0.7,0,1.6-0.1,2.6-0.4c1-0.3,2-0.8,3.1-1.5c4.2-2.6,7.8-5.4,10.8-8.5c3-3.1,5.6-6.4,7.7-10.1c2.2-3.7,4-7.8,5.6-12.2
		c1.6-4.4,3-9.3,4.3-14.6c0.1-0.3,0.3-0.7,0.7-1c0.4-0.3,0.8-0.6,1.3-0.9c0.5-0.2,1.1-0.5,1.7-0.6s1.2-0.3,1.7-0.3
		c2.6,0,4.7,0.7,6.1,2.1c1.4,1.4,2.1,3.3,2.1,5.7c0,0.9-0.2,2.3-0.7,4.3c-0.4,2-1,4.1-1.6,6.3c-0.6,2.2-1.2,4.3-1.8,6.3
		c-0.6,2-1.1,3.5-1.5,4.4l-3.6,10.4c-1.6,4.7-3.1,9-4.4,12.9c-1.3,3.9-2.7,7.6-4.2,11s-3.2,6.6-5,9.6s-4.1,6-6.7,8.9
		c-2.6,2.9-5.8,5.8-9.4,8.7c-3.6,2.9-7.9,5.9-13,9c-3.1,1.8-6.1,3.3-9,4.5C444.7,228.4,441.6,229,438.3,229z"/>
    <path d="M596.6,161.2c0,3.6-1.1,7.2-3.2,11c-2.1,3.8-5.5,7.3-10.1,10.6c-1.4,1-3.2,2.1-5.2,3.2c-2.1,1.2-4.3,2.3-6.7,3.5
		c-2.4,1.2-4.9,2.3-7.6,3.5c-2.7,1.1-5.3,2.1-8,2.9c-2.7,0.8-5.3,1.5-7.9,2c-2.6,0.5-5,0.8-7.3,0.8c-1.1,0-2.1-0.1-2.9-0.3
		s-1.6-0.5-2.3-0.9c-0.7-0.4-1.4-1.1-2-1.9c-0.6-0.8-1.3-1.8-2.1-3c-1.2,0.9-2.4,1.6-3.8,2c-1.3,0.4-2.6,0.6-4,0.6h-2.1
		c-0.4,0-0.8-0.1-1.1-0.4c-0.3-0.3-0.7-0.6-0.9-1c-0.3-0.4-0.5-0.8-0.6-1.3c-0.1-0.5-0.2-0.9-0.2-1.4c0-2.5,0.4-5,1.1-7.3
		c0.7-2.3,1.6-4.6,2.5-6.9c1.4-4.2,2.8-8.6,4.2-13.3c1.4-4.6,2.8-9.3,4.2-14c1.3-4.7,2.6-9.3,3.8-13.8c1.2-4.5,2.3-8.8,3.4-12.9
		l2.1-8.6c0-0.1,0-0.6-0.1-1.3c0-0.7-0.1-1.5-0.2-2.3c-0.1-0.8-0.1-1.6-0.2-2.3l-0.1-1l0.4-1.3l-0.1,0.1c0.2-0.9,0.6-1.9,1-3.1
		c0.4-1.1,1-2.2,1.6-3.2c0.6-1,1.4-1.8,2.1-2.5c0.8-0.7,1.6-1,2.5-1c0.8,0,1.9,0.1,3.2,0.2s2.5,0.2,3.5,0.2c0.5,0,1,0,1.5-0.1
		c0.5,0,1.1-0.2,1.8-0.4c0.7-0.2,1.7-0.5,2.8-0.9c1.2-0.4,2.7-0.9,4.6-1.5c2.8-1,5.4-1.8,7.8-2.5c2.4-0.7,4.6-1.2,6.7-1.6
		c2.1-0.4,4.2-0.7,6.1-0.9c2-0.2,4-0.3,6.1-0.3c2.6,0,5.2,0.2,7.6,0.7c2.5,0.5,4.6,1.3,6.6,2.4c1.9,1.1,3.4,2.6,4.6,4.4
		c1.1,1.8,1.7,4,1.7,6.6c0,4.4-1.2,8.4-3.5,11.9c-2.3,3.5-5.6,6.8-9.9,9.8c-4.3,3-9.4,5.8-15.4,8.5c-6,2.6-12.6,5.2-20,7.7
		c5.9,0.9,10.9,1.9,15.2,3.2c4.2,1.2,7.8,2.6,10.5,4.3c2.8,1.6,4.8,3.5,6.2,5.6C595.9,156.2,596.6,158.6,596.6,161.2z M571.3,154.4
		c-0.5-0.1-1.4-0.3-2.7-0.5c-1.3-0.2-2.9-0.5-4.6-0.8c-1.8-0.3-3.7-0.6-5.7-0.9c-2-0.3-4-0.6-5.8-1c-1.8-0.3-3.5-0.6-5-0.9
		c-1.5-0.3-2.6-0.5-3.3-0.7c-1.9,6.1-3.5,12-5,17.5c-1.4,5.6-2.8,11.2-4.3,16.9l4.9,0.5c1.1,0.1,2.1,0.2,3,0.3
		c0.9,0.1,1.4,0.1,1.5,0.1c2-0.2,4.2-0.6,6.6-1.2c2.4-0.6,4.9-1.3,7.4-2.2c2.6-0.9,5.1-1.9,7.8-3.1c2.6-1.2,5.2-2.4,7.7-3.8
		c0.9-0.6,1.9-1.3,3-2.2c1-0.8,2-1.8,2.8-2.8c0.8-1,1.5-2.1,2.1-3.2c0.5-1.1,0.8-2.3,0.8-3.5c0-2-1-3.7-3.1-5.2
		C577.3,156.3,574.6,155.2,571.3,154.4z M547.7,137.1c2.8-0.9,5.7-1.9,8.8-3.2c3.1-1.2,6.2-2.5,9.5-4c3.3-1.4,6.6-3,9.9-4.6
		c3.4-1.6,6.7-3.2,10-4.9h-0.1c1.2-0.6,2.4-1.4,3.5-2.3c1.2-0.9,2.2-1.9,3.1-3c0.9-1.1,1.7-2.2,2.2-3.4c0.6-1.2,0.9-2.3,0.9-3.5
		c0-0.7-0.2-1.5-0.5-2.2c-0.3-0.7-0.9-1.4-1.6-2c-0.7-0.6-1.7-1.1-2.9-1.4c-1.2-0.3-2.7-0.5-4.5-0.5c-2.5,0-5.3,0.3-8.4,0.9
		c-3.1,0.6-6.2,1.4-9.1,2.3c-2.9,0.9-5.5,2-7.8,3.1c-2.3,1.1-3.8,2.2-4.5,3.3c-0.1,0.2-0.4,0.8-0.6,1.6c-0.3,0.8-0.6,1.8-0.9,2.8
		c-0.3,1-0.7,2-1.1,2.9c-0.4,0.9-0.7,1.6-1.1,2.1c-0.1,0.5-0.3,1.3-0.6,2.3c-0.3,1-0.7,2.2-1.1,3.6c-0.4,1.4-0.9,2.9-1.4,4.6
		C548.8,133.5,548.3,135.3,547.7,137.1z"/>
    <path d="M610.4,165.9c0-2.1,0.6-3.9,1.7-5.4c1.1-1.5,2.7-2.5,4.5-3c0.5-1.1,1.4-2.6,2.5-4.4c1.1-1.9,2.6-3.9,4.2-6.1
		c1.7-2.2,3.6-4.4,5.8-6.6c2.2-2.2,4.5-4.2,7.1-6c2.6-1.8,5.4-3.3,8.4-4.4c3-1.1,6.2-1.7,9.6-1.7c2.9,0,5.4,0.3,7.5,1
		c2.1,0.7,3.9,1.7,5.3,2.9c1.4,1.2,2.4,2.7,3.1,4.4c0.7,1.7,1,3.6,1,5.5c0,1.7-0.2,3.3-0.7,4.8c-0.7,2.8-2,5.2-3.9,7.3
		c-1.9,2.1-4.1,3.9-6.7,5.5c-2.6,1.6-5.3,2.9-8.3,3.9c-3,1-6,1.9-9,2.6c-3,0.7-5.9,1.2-8.7,1.6c-2.8,0.4-5.2,0.7-7.2,0.9
		c-0.4,0.9-0.8,2-1.2,3.4c-0.3,1.4-0.5,2.7-0.5,4c0,2.9,1.1,5.1,3.4,6.7c2.3,1.6,5.4,2.4,9.5,2.4c2.3,0,4.6-0.3,6.7-0.8
		c2.1-0.5,4.2-1.2,6.1-2c1.9-0.8,3.7-1.7,5.4-2.7c1.7-1,3.2-1.9,4.6-2.9c1.8-1.2,3.5-2.2,5.1-3s3-1.2,4.3-1.2c1.2,0,2,0.3,2.4,0.9
		c0.3,0.6,0.5,1.3,0.5,2c0,0.4,0,0.8,0,1.2c0,0.4-0.1,0.7-0.1,0.9c-0.2,1.3-0.7,2.6-1.5,3.9c-0.7,1.3-1.7,2.4-2.8,3.4
		c-5.2,4.1-10.5,7-15.9,8.7c-5.4,1.7-11.2,2.6-17.4,2.6c-1.2,0-2.6-0.1-4.2-0.2c-1.6-0.1-3.3-0.4-5-0.9c-1.7-0.4-3.5-1.1-5.1-1.9
		c-1.7-0.8-3.2-2-4.5-3.4c-1.3-1.4-2.4-3.1-3.2-5.1c-0.8-2-1.2-4.5-1.2-7.4c0-2.3,0.3-4.9,1-7.8c-0.6-0.1-1.3-0.4-1.8-1
		C610.7,167.8,610.4,166.9,610.4,165.9z M657.1,145.2c0.1-0.2,0.1-0.5,0.1-0.7c0-0.2,0-0.4,0-0.7c0-1.3-0.5-2.3-1.5-3
		c-1-0.7-2.2-1-3.6-1c-2.2,0-4.3,0.6-6.4,1.7c-2.1,1.1-4.1,2.6-6,4.3c-1.9,1.7-3.5,3.5-5,5.5c-1.4,2-2.6,3.7-3.4,5.3
		c3.6-0.3,6.9-0.8,9.8-1.5s5.6-1.5,7.8-2.5c2.2-1,4-2.2,5.4-3.4C655.8,148,656.7,146.7,657.1,145.2z"/>
    <path d="M688.3,186.9c0.6-3.5,1.4-7.3,2.2-11.5c0.8-4.2,1.7-8.4,2.6-12.7s1.8-8.5,2.6-12.6c0.8-4.1,1.6-7.9,2.2-11.3
		c-0.1-0.5-0.1-0.9-0.1-1.3c0-0.4,0-0.8,0-1.2c0-1.5,0.1-3.1,0.3-4.6c0.2-1.5,0.5-3,0.8-4.2c0.5-1.9,1.2-3.2,1.8-3.8
		c0.7-0.7,1.8-1,3.2-1c1.4,0,2.6,0.3,3.5,0.9c0.9,0.6,1.6,1.3,2,2.3c0.5,0.9,0.8,2,1,3.2c0.1,1.2,0.2,2.5,0.2,3.8
		c0,0.7,0,1.5-0.1,2.3c-0.1,0.8-0.1,1.5-0.1,2c1.4-1.4,2.9-2.9,4.4-4.4c1.6-1.5,3.2-2.9,5-4.1c1.8-1.2,3.6-2.2,5.6-3
		c2-0.8,4-1.2,6.1-1.2c0.8,0,1.7,0.1,2.5,0.2c0.8,0.1,1.7,0.3,2.5,0.6c1,0.2,2,0.6,3.1,1c1.1,0.4,2.1,1,3.1,1.8
		c1.6,1.2,3,2.8,4.1,4.7c1.1,1.9,1.7,3.8,1.7,5.7c0,0.7-0.1,1.6-0.4,2.4c-0.3,0.9-0.7,1.7-1.2,2.4c-0.5,0.7-1.1,1.3-1.8,1.8
		c-0.7,0.5-1.5,0.7-2.3,0.7c-0.8,0-1.9-0.2-3.1-0.6c-1.2-0.4-2.2-1-3-1.7c-0.3-0.3-0.7-0.7-1.1-1.3c-0.4-0.5-0.7-1.1-1-1.6
		c-0.3-0.5-0.6-1.1-0.9-1.5c-0.3-0.5-0.5-0.8-0.6-0.9c-0.2,0-0.5-0.1-0.8-0.1c-0.3,0-0.6,0-0.8,0c-2.5,0-4.9,0.6-7.2,1.9
		c-2.3,1.3-4.4,2.9-6.4,4.7c-2,1.9-3.8,3.8-5.5,6c-1.7,2.1-3.1,4-4.4,5.7c-1,4-2.1,8.3-3.3,12.8c-1.2,4.5-2.4,9.3-3.6,14.3v1.9
		c0,1.5,0,3-0.1,4.5c-0.1,1.5-0.4,2.9-0.9,4.1c-0.5,0.7-1.3,1.4-2.3,1.9c-1,0.5-2.2,0.8-3.5,0.8c-2.1,0-3.6-0.7-4.7-2
		c-1-1.4-1.6-3-1.6-4.8C688,188.7,688.1,187.8,688.3,186.9z"/>
    <path d="M753.3,186.9c0.6-3.5,1.4-7.3,2.2-11.5c0.8-4.2,1.7-8.4,2.6-12.7s1.8-8.5,2.6-12.6c0.8-4.1,1.6-7.9,2.2-11.3
		c-0.1-0.5-0.1-0.9-0.1-1.3c0-0.4,0-0.8,0-1.2c0-1.5,0.1-3.1,0.3-4.6c0.2-1.5,0.5-3,0.8-4.2c0.5-1.9,1.2-3.2,1.8-3.8
		c0.7-0.7,1.8-1,3.2-1c1.4,0,2.6,0.3,3.5,0.9c0.9,0.6,1.6,1.3,2,2.3c0.5,0.9,0.8,2,1,3.2c0.1,1.2,0.2,2.5,0.2,3.8
		c0,0.7,0,1.5-0.1,2.3c-0.1,0.8-0.1,1.5-0.1,2c1.4-1.4,2.9-2.9,4.4-4.4c1.6-1.5,3.2-2.9,5-4.1c1.8-1.2,3.6-2.2,5.6-3
		c2-0.8,4-1.2,6.1-1.2c0.8,0,1.7,0.1,2.5,0.2c0.8,0.1,1.7,0.3,2.5,0.6c1,0.2,2,0.6,3.1,1c1.1,0.4,2.1,1,3.1,1.8
		c1.6,1.2,3,2.8,4.1,4.7c1.1,1.9,1.7,3.8,1.7,5.7c0,0.7-0.1,1.6-0.4,2.4c-0.3,0.9-0.7,1.7-1.2,2.4c-0.5,0.7-1.1,1.3-1.8,1.8
		c-0.7,0.5-1.5,0.7-2.3,0.7c-0.8,0-1.9-0.2-3.1-0.6c-1.2-0.4-2.2-1-3-1.7c-0.3-0.3-0.7-0.7-1.1-1.3c-0.4-0.5-0.7-1.1-1-1.6
		c-0.3-0.5-0.6-1.1-0.9-1.5c-0.3-0.5-0.5-0.8-0.6-0.9c-0.2,0-0.5-0.1-0.8-0.1c-0.3,0-0.6,0-0.8,0c-2.5,0-4.9,0.6-7.2,1.9
		c-2.3,1.3-4.4,2.9-6.4,4.7c-2,1.9-3.8,3.8-5.5,6c-1.7,2.1-3.1,4-4.4,5.7c-1,4-2.1,8.3-3.3,12.8c-1.2,4.5-2.4,9.3-3.6,14.3v1.9
		c0,1.5,0,3-0.1,4.5c-0.1,1.5-0.4,2.9-0.9,4.1c-0.5,0.7-1.3,1.4-2.3,1.9c-1,0.5-2.2,0.8-3.5,0.8c-2.1,0-3.6-0.7-4.7-2
		c-1-1.4-1.6-3-1.6-4.8C752.9,188.7,753,187.8,753.3,186.9z"/>
    <path d="M816.3,229c-0.7,0-1.4-0.2-2-0.6c-0.6-0.4-1.1-0.9-1.5-1.6c-0.4-0.6-0.8-1.4-1-2.1c-0.2-0.8-0.4-1.5-0.4-2.3
		c0-0.9,0.1-1.8,0.4-2.5c0.2-0.7,0.6-1.3,0.9-1.8c0.4-0.5,0.8-0.9,1.2-1.2c0.4-0.3,0.8-0.5,1.2-0.7c1.2-0.3,2.6-0.6,4.2-1
		c1.6-0.3,3.3-0.9,5.2-1.5c1.9-0.7,3.8-1.5,6-2.6c2.1-1.1,4.3-2.5,6.5-4.2c2.2-1.7,4.6-3.8,7-6.1s4.8-5,7.1-8.1
		c2.3-3.1,4.4-6.7,6.4-10.6c2-4,3.6-8.6,4.9-13.7c-0.9,1-2,2.2-3.2,3.5c-1.2,1.3-2.5,2.7-3.9,4c-1.4,1.4-2.8,2.7-4.3,3.9
		c-1.5,1.3-3,2.4-4.5,3.4c-1.5,1-2.9,1.8-4.4,2.4c-1.4,0.6-2.7,0.9-4,0.9c-3.3,0-6.2-0.8-8.5-2.3c-2.3-1.5-4.5-4-6.5-7.5
		c-0.5-1-1-2.3-1.3-3.9c-0.3-1.6-0.4-3.2-0.4-4.8c0-2.7,0.1-5.3,0.4-7.8c0.2-2.5,0.6-5.2,1.1-7.9c0.5-2.7,1.1-5.6,1.8-8.6
		c0.7-3,1.4-6.3,2.3-9.9c0-0.9,0.1-1.8,0.2-2.7c0.1-0.7,0.2-1.4,0.2-2c0-0.6,0.1-1,0.1-1.2c0.1-0.8,0.4-1.6,0.9-2.4
		c0.5-0.7,1-1.4,1.7-1.9c0.7-0.5,1.4-1,2.2-1.3c0.8-0.3,1.5-0.4,2.3-0.4c1,0,2.1,0.1,3.1,0.3c1,0.2,1.9,0.6,2.5,1.2
		c0.8,0.9,1.5,2.1,1.9,3.5c0.4,1.4,0.6,2.7,0.6,3.9c0,0.4-0.2,1.3-0.6,2.7c-0.4,1.3-1,2.7-1.8,4.2c-1.2,4.5-2.2,8.3-2.9,11.4
		c-0.7,3.1-1.3,5.7-1.8,7.7c-0.4,2.1-0.7,3.7-0.9,4.9c-0.2,1.2-0.3,2.1-0.3,2.8c0,2.7,0.4,4.8,1.3,6.4c0.9,1.6,2,2.4,3.3,2.4
		c0.7,0,1.6-0.1,2.6-0.4c1-0.3,2-0.8,3.1-1.5c4.2-2.6,7.8-5.4,10.8-8.5c3-3.1,5.6-6.4,7.7-10.1c2.2-3.7,4-7.8,5.6-12.2
		c1.6-4.4,3-9.3,4.3-14.6c0.1-0.3,0.3-0.7,0.7-1c0.4-0.3,0.8-0.6,1.3-0.9c0.5-0.2,1.1-0.5,1.7-0.6s1.2-0.3,1.7-0.3
		c2.6,0,4.7,0.7,6.1,2.1c1.4,1.4,2.1,3.3,2.1,5.7c0,0.9-0.2,2.3-0.7,4.3c-0.4,2-1,4.1-1.6,6.3c-0.6,2.2-1.2,4.3-1.8,6.3
		c-0.6,2-1.1,3.5-1.5,4.4l-3.6,10.4c-1.6,4.7-3.1,9-4.4,12.9c-1.3,3.9-2.7,7.6-4.2,11s-3.2,6.6-5,9.6s-4.1,6-6.7,8.9
		c-2.6,2.9-5.8,5.8-9.4,8.7c-3.6,2.9-7.9,5.9-13,9c-3.1,1.8-6.1,3.3-9,4.5C822.7,228.4,819.5,229,816.3,229z"/></g></svg>